<?xml version="1.0" encoding="utf-8"?>
<!-- Generator: Adobe Illustrator 27.0.0, SVG Export Plug-In . SVG Version: 6.00 Build 0)  -->
<svg version="1.1" id="Layer_1" xmlns="http://www.w3.org/2000/svg" xmlns:xlink="http://www.w3.org/1999/xlink" x="0px" y="0px"
	 width="678px" height="298px" viewBox="0 0 678 298" style="enable-background:new 0 0 678 298;" xml:space="preserve">
<style type="text/css">
	.st0{fill:#FFFFFF;}
	.st1{fill:#FCB818;}
	.st2{fill:#B21E38;}
</style>
<g>
	<path class="st0" d="M84.6,281.2c-15.7,0-26.7-12.3-26.7-29.9v-95.6c0-1.8-1.4-3.2-3.2-3.2h-8.8c-17.4,0-29.1-10.4-29.1-25.9
		s11.7-25.9,29.1-25.9h8.8c1.8,0,3.2-1.4,3.2-3.2v-8c0-46.3,24.7-72.9,67.7-72.9c25.1,0,37.8,8.8,37.8,26.3
		c0,16-10.9,25.5-29.1,25.5c-14.7,0-23.1,9.6-23.1,26.3v2.8c0,1.8,1.4,3.2,3.2,3.2h20.3c16.6,0,28.7,10.9,28.7,25.9
		c0,14.8-12.3,25.9-28.7,25.9h-20.3c-1.8,0-3.2,1.4-3.2,3.2v95.6C111.2,268.9,100.3,281.2,84.6,281.2z"/>
	<path d="M125.6,17.3c24.8,0,37.3,8.7,37.3,25.8c0,15.6-10.7,25-28.6,25c-15,0-23.6,9.8-23.6,26.8v2.8c0,2,1.6,3.7,3.7,3.7h20.3
		c16.3,0,28.2,10.7,28.2,25.4c0,14.5-12.1,25.4-28.2,25.4h-20.3c-2,0-3.7,1.6-3.7,3.7v95.6c0,17.3-10.8,29.4-26.2,29.4
		s-26.2-12.1-26.2-29.4v-95.6c0-2-1.6-3.7-3.7-3.7h-8.8c-17.1,0-28.6-10.2-28.6-25.4c0-15.2,11.5-25.4,28.6-25.4h8.8
		c2,0,3.7-1.6,3.7-3.7v-8C58.4,43.7,82.9,17.3,125.6,17.3 M125.6,16.3c-43.3,0-68.2,26.7-68.2,73.4v8c0,1.5-1.2,2.7-2.7,2.7h-8.8
		c-17.7,0-29.6,10.6-29.6,26.4c0,15.8,11.9,26.4,29.6,26.4h8.8c1.5,0,2.7,1.2,2.7,2.7v95.6c0,17.9,11.2,30.4,27.2,30.4
		s27.2-12.5,27.2-30.4v-95.6c0-1.5,1.2-2.7,2.7-2.7h20.3c16.6,0,29.2-11.3,29.2-26.4c0-15.3-12.3-26.4-29.2-26.4h-20.3
		c-1.5,0-2.7-1.2-2.7-2.7v-2.8c0-16.4,8.2-25.8,22.6-25.8c18.5,0,29.6-9.7,29.6-26C163.9,25.3,151,16.3,125.6,16.3L125.6,16.3z"/>
</g>
<g>
	<path class="st1" d="M514.9,281.2c-2.4,0-4.9-0.1-7.4-0.3c-10.1-0.8-19.4-3.5-27.6-8.3l-1.4-0.8l1.6-0.1c11.1-0.8,21-5.4,29.4-13.7
		c10.4-10.2,15.4-23.1,15.4-39.4c0-9,0-22-0.1-34.9l0-0.2c0-12.5-0.1-24.9-0.1-33.6c0-2.7,0.2-5.5,0.6-8.3
		c1.1-7.4,5.6-14.3,12.2-18.8c4.8-3.3,10.3-5,15.9-5c2,0,4,0.2,5.9,0.7c13.7,3.3,22.3,14.2,22.5,28.5c0.2,21.1,0.3,57.4-0.1,77.9
		c-0.3,14.6-6.1,27.2-17.3,37.5C550.7,275,534.5,281.2,514.9,281.2C514.9,281.2,514.9,281.2,514.9,281.2z"/>
	<path d="M553.5,118.2c2,0,3.9,0.2,5.8,0.7c13.5,3.2,21.9,14,22.1,28c0.2,21,0.3,57.3-0.1,77.9c0,0,0,0,0,0
		c-0.3,14.4-6,26.9-17.1,37.1c-13.7,12.6-29.8,18.8-49.3,18.8c-2.4,0-4.9-0.1-7.4-0.3c-10-0.8-19.2-3.5-27.4-8.2
		c11.2-0.8,21.3-5.5,29.8-13.9c10.5-10.3,15.5-23.3,15.5-39.8c0-9-0.1-22-0.1-34.9c0-12.6-0.1-25.1-0.1-33.9c0-2.7,0.2-5.5,0.6-8.2
		c1.1-7.3,5.5-14,12-18.4C542.6,119.9,548.1,118.2,553.5,118.2 M553.5,117.2c-5.7,0-11.3,1.8-16.2,5.1c-6.8,4.6-11.3,11.5-12.4,19.1
		c-0.4,2.8-0.6,5.6-0.6,8.3c0,8.7,0.1,21.4,0.1,33.6l0,0.3c0,12.1,0.1,25.7,0.1,34.9c0,16.2-5,29-15.2,39.1
		c-8.3,8.2-18.1,12.8-29.1,13.6l-3.3,0.2l2.8,1.6c8.3,4.8,17.7,7.6,27.8,8.3c2.5,0.2,5,0.3,7.5,0.3c19.7,0,36-6.2,49.9-19
		c11.3-10.4,17.2-23.2,17.4-37.9c0.4-20.5,0.4-56.8,0.1-77.9c-0.2-14.6-8.9-25.7-22.9-29C557.6,117.4,555.6,117.2,553.5,117.2
		L553.5,117.2z"/>
</g>
<g>
	<path class="st2" d="M594.2,281.1c-3.1,0-6.3-0.2-9.6-0.5c-3.7-0.4-7.4-1.2-11.1-2.1l-1.1-0.3l1-0.6c20.2-13.4,30.4-31.9,30.3-54.9
		c-0.1-17.6-0.1-53,0-73.2c0-3.6,0.4-7,1.2-10.1c2.1-8.5,7.9-15.5,15.8-19.2c3.7-1.7,7.7-2.6,11.7-2.6c4.2,0,8.4,1,12.1,2.8
		c10.7,5.3,16.2,13.9,16.4,25.5c0.3,18.1,0.2,48.7,0.1,68.9l0,7.5c-0.1,15.9-6.1,29.4-17.8,40.2
		C629.8,274.9,613.3,281.1,594.2,281.1C594.2,281.1,594.2,281.1,594.2,281.1z"/>
	<path d="M632.4,118.1c4.1,0,8.1,0.9,11.9,2.8c10.5,5.2,16,13.7,16.2,25.1c0.3,18,0.2,48.6,0.1,68.9l0,7.5
		c-0.1,15.7-6,29.2-17.7,39.8c-13.3,12.2-29.6,18.4-48.6,18.4c-3.1,0-6.3-0.2-9.5-0.5c-3.7-0.4-7.3-1.2-11.1-2.1
		c20.4-13.5,30.6-32.1,30.5-55.3c-0.1-17.5-0.1-52.8,0-73.2c0-3.5,0.4-6.9,1.2-10c2.1-8.4,7.7-15.3,15.5-18.9
		C624.6,119,628.5,118.1,632.4,118.1 M632.4,117.1c-4.1,0-8.1,0.9-11.9,2.7c-8.1,3.7-13.9,10.9-16,19.5c-0.8,3.2-1.2,6.6-1.2,10.2
		c-0.1,20.2-0.1,55.6,0,73.2c0.1,22.8-10.1,41.2-30.1,54.5l-1.9,1.3l2.2,0.5c3.8,0.9,7.5,1.7,11.2,2.1c3.3,0.3,6.5,0.5,9.6,0.5
		c19.2,0,35.8-6.3,49.3-18.6c11.9-10.9,17.9-24.5,18-40.6l0-7.5c0.1-20.2,0.2-50.8-0.1-68.9c-0.2-11.8-5.8-20.6-16.7-26
		C640.9,118.1,636.6,117.1,632.4,117.1L632.4,117.1z"/>
</g>
<g>
	<path class="st0" d="M473.9,254c-1.4,0-2.9-0.1-4.3-0.3c-7.8-1.2-14.1-5.3-17.6-11.7c-3.6-6.6-5.5-13.7-5.8-21.6
		c-0.2-7.1-0.2-14.6-0.1-21.1l0-0.7c0-2.8,0-5.6,0-8.5c0-0.3,0-0.5-0.1-0.8l0-0.1l0-8c0-10.3,0-27.5,0.1-35c0-2.5,0.4-5.1,1-7.5
		c3.3-12.7,14.3-20.9,28-20.9c1.1,0,2.3,0.1,3.4,0.2c13.3,1.3,24.4,13.2,24.7,26.5c0.4,19.2,0.4,55.2-0.1,76.3
		c-0.3,10.8-3.9,19.6-10.7,26.2C487.8,251.4,481.1,254,473.9,254z"/>
	<path d="M475.1,118.3c1.1,0,2.2,0.1,3.4,0.2c13.1,1.3,24,12.9,24.2,26c0.4,19.2,0.4,55.3-0.1,76.3c-0.3,10.7-3.8,19.4-10.5,25.8
		c-4.6,4.4-11.3,6.9-18.2,6.9c-1.4,0-2.8-0.1-4.2-0.3c-7.7-1.1-13.8-5.2-17.2-11.4c-3.6-6.5-5.5-13.5-5.7-21.4
		c-0.2-7-0.2-14.2-0.1-21.1c0-3.1,0-6.1,0-9.2c0-0.3,0-0.6-0.1-0.9l0-7.9c0-11.7,0-27.7,0.1-35c0-2.4,0.4-5,1-7.4
		C450.8,126.2,461.7,118.3,475.1,118.3 M475.1,117.3c-14,0-25.2,8.4-28.5,21.3c-0.6,2.5-1,5.2-1,7.7c-0.1,7.4-0.1,24-0.1,35l0,7.9
		l0,0.1l0,0.1c0.1,0.2,0.1,0.4,0.1,0.7c0,2.8,0,5.6,0,8.4l0,0.8c-0.1,6.6-0.1,14,0.1,21.1c0.3,8,2.2,15.2,5.9,21.8
		c3.6,6.5,10,10.7,17.9,11.9c1.4,0.2,2.9,0.3,4.4,0.3c7.3,0,14.2-2.6,18.9-7.2c6.9-6.7,10.5-15.6,10.8-26.5
		c0.5-21.1,0.5-57.2,0.1-76.4c-0.3-13.6-11.5-25.6-25.1-27C477.4,117.3,476.2,117.3,475.1,117.3L475.1,117.3z"/>
</g>
<g>
	<path class="st0" d="M341.4,281.2c-45,0-81.6-36.6-81.6-81.6c0-45,36.6-81.6,81.6-81.6c45,0,81.6,36.6,81.6,81.6
		C423,244.6,386.3,281.2,341.4,281.2z M341.4,167.1c-18.3,0-33.2,14.6-33.2,32.5c0,17.9,14.9,32.5,33.2,32.5
		c18.3,0,33.2-14.6,33.2-32.5C374.6,181.7,359.7,167.1,341.4,167.1z"/>
	<path d="M341.4,118.5c44.7,0,81.1,36.4,81.1,81.1s-36.4,81.1-81.1,81.1c-44.7,0-81.1-36.4-81.1-81.1S296.6,118.5,341.4,118.5
		 M341.4,232.6c18.6,0,33.7-14.8,33.7-33c0-18.2-15.1-33-33.7-33c-18.6,0-33.7,14.8-33.7,33C307.6,217.8,322.8,232.6,341.4,232.6
		 M341.4,117.5c-45.3,0-82.1,36.8-82.1,82.1s36.8,82.1,82.1,82.1c45.3,0,82.1-36.8,82.1-82.1S386.6,117.5,341.4,117.5L341.4,117.5z
		 M341.4,231.6c-18,0-32.7-14.3-32.7-32c0-17.6,14.7-32,32.7-32c18,0,32.7,14.3,32.7,32C374.1,217.2,359.4,231.6,341.4,231.6
		L341.4,231.6z"/>
</g>
<g>
	<path class="st0" d="M208.8,281.2c-1.4,0-2.9-0.1-4.3-0.3c-7.8-1.2-14.1-5.3-17.6-11.7c-3.6-6.6-5.5-13.7-5.8-21.6
		c-0.2-7.1-0.2-14.5-0.1-21.1l0-0.9c0-2.8,0-5.6,0-8.3c0-0.3,0-0.5-0.1-0.8l0-0.1l0-8c0-11.1,0-131.3,0.1-138.7c0-2.5,0.4-5.1,1-7.5
		c3.3-12.7,14.3-20.9,28-20.9c1.1,0,2.3,0.1,3.4,0.2c13.3,1.3,24.4,13.2,24.7,26.5c0.4,19.5,0.4,159.8-0.1,180.1
		c-0.3,10.8-3.9,19.6-10.7,26.2C222.7,278.6,216,281.2,208.8,281.2C208.8,281.2,208.8,281.2,208.8,281.2z"/>
	<path d="M210,41.7c1.1,0,2.2,0.1,3.4,0.2c13.1,1.3,24,12.9,24.2,26c0.4,19.2,0.4,159-0.1,180.1c-0.3,10.7-3.8,19.4-10.5,25.8
		c-4.6,4.4-11.3,6.9-18.2,6.9c-1.4,0-2.8-0.1-4.2-0.3c-7.7-1.1-13.8-5.2-17.2-11.4c-3.6-6.5-5.5-13.5-5.7-21.4
		c-0.2-7-0.2-14.2-0.1-21.1c0-3.1,0-6.1,0-9.2c0-0.3,0-0.6-0.1-0.9l0-7.9c0-11.7,0-131.5,0.1-138.7c0-2.4,0.4-5,1-7.4
		C185.7,49.7,196.5,41.7,210,41.7 M210,40.7c-14,0-25.2,8.4-28.5,21.3c-0.6,2.5-1,5.2-1,7.7c-0.1,7.3-0.1,127.6-0.1,138.7l0,7.9
		l0,0.1l0,0.1c0.1,0.2,0.1,0.4,0.1,0.7c0,2.8,0,5.6,0,8.4l0,0.8c-0.1,6.6-0.1,14,0.1,21.1c0.3,8,2.2,15.2,5.9,21.8
		c3.6,6.5,10,10.7,17.9,11.9c1.4,0.2,2.9,0.3,4.4,0.3c7.3,0,14.2-2.6,18.9-7.2c6.9-6.7,10.5-15.6,10.8-26.5
		c0.5-20.3,0.5-160.7,0.1-180.1c-0.3-13.6-11.5-25.6-25.1-27C212.3,40.8,211.1,40.7,210,40.7L210,40.7z"/>
</g>
</svg>
